<svg width="120" height="120" viewBox="0 0 120 120" fill="none" xmlns="http://www.w3.org/2000/svg">
<path d="M48.0469 67.0312L47.9297 67.1484H47.2266L47.1094 67.2656H46.6406L46.5234 67.3828H46.2891L46.1719 67.5H45.9375L45.8203 67.6172H45.7031L45.5859 67.7344H45.4688L45.3516 67.8516H45.2344L45.1172 67.9688H45L44.8828 68.0859H44.7656L44.6484 68.2031H44.5312L44.2969 68.4375H44.1797L43.9453 68.6719H43.8281L43.4766 69.0234H43.3594L43.0078 69.375H42.8906L42.4219 69.8438H42.3047L40.1953 71.9531V72.0703L39.6094 72.6562V72.7734L39.1406 73.2422V73.3594L38.7891 73.7109V73.8281L38.4375 74.1797V74.2969L38.0859 74.6484V74.7656L37.8516 75V75.1172L37.6172 75.3516V75.4688L37.5 75.5859V75.7031L37.2656 75.9375V76.0547L37.0312 76.2891V76.4062L36.9141 76.5234V76.6406L36.7969 76.7578V76.875L36.6797 76.9922V77.1094L36.5625 77.2266V77.3438L36.4453 77.4609V77.5781L36.3281 77.6953V77.8125L36.2109 77.9297V78.0469L36.0938 78.1641V78.2812L35.9766 78.3984V78.6328L35.8594 78.75V78.8672L35.7422 78.9844V79.2188L35.625 79.3359V79.5703L35.5078 79.6875V79.9219L35.3906 80.0391V80.2734L35.2734 80.3906V80.7422L35.1562 80.8594V81.2109L35.0391 81.3281V81.7969L34.9219 81.9141V82.3828L34.8047 82.5V83.2031L34.6875 83.3203V84.1406L34.5703 84.2578V87.3047L34.6875 87.4219V88.2422L34.8047 88.3594V88.9453L34.9219 89.0625V89.4141L35.0391 89.5312V89.8828L35.1562 90V90.2344L35.2734 90.3516V90.4688L35.3906 90.5859V90.8203L35.5078 90.9375V91.0547L35.625 91.1719V91.2891L35.8594 91.5234V91.6406L35.9766 91.7578V91.875L36.2109 92.1094V92.2266L36.3281 92.3438V92.4609L36.5625 92.6953V92.8125L36.9141 93.1641V93.2812L37.9688 94.3359H38.0859L38.4375 94.6875H38.5547L38.7891 94.9219H38.9062L39.1406 95.1562H39.2578L39.375 95.2734H39.4922L39.6094 95.3906H39.7266L39.8438 95.5078H39.9609L40.0781 95.625H40.3125L40.4297 95.7422H40.5469L40.6641 95.8594H41.0156L41.1328 95.9766H41.3672L41.4844 96.0938H41.9531L42.0703 96.2109H42.6562L42.7734 96.3281H44.0625L44.1797 96.4453H44.6484L44.7656 96.3281H45.9375L46.0547 96.2109H46.6406L46.7578 96.0938H47.1094L47.2266 95.9766H47.5781L47.6953 95.8594H47.9297L48.0469 95.7422H48.2812L48.3984 95.625H48.5156L48.6328 95.5078H48.8672L48.9844 95.3906H49.1016L49.2188 95.2734H49.3359L49.4531 95.1562H49.5703L49.8047 94.9219H49.9219L50.0391 94.8047H50.1562L50.3906 94.5703H50.5078L50.9766 94.1016H51.0938V93.9844L51.2109 93.8672H51.3281L51.6797 93.5156V93.3984L52.1484 92.9297V92.8125L52.3828 92.5781V92.4609L52.6172 92.2266V92.1094L52.7344 91.9922V91.875L52.8516 91.7578V91.6406L52.9688 91.5234V91.2891L53.0859 91.1719V90.9375L53.2031 90.8203V90.5859L53.3203 90.4688V90L53.4375 89.8828V88.0078L53.3203 87.8906V87.5391L53.2031 87.4219V87.3047L53.0859 87.1875V87.0703L52.9688 86.9531V86.8359L52.3828 86.25H52.2656L52.1484 86.1328H52.0312L51.9141 86.0156H51.7969L51.6797 85.8984H51.3281L51.2109 85.7812H50.625L50.5078 85.8984H50.1562L50.0391 86.0156H49.8047L49.6875 86.1328H49.5703L49.3359 86.3672H49.2188L48.9844 86.6016H48.8672L48.3984 87.0703H48.2812L47.9297 87.4219H47.8125L47.5781 87.6562H47.4609L47.2266 87.8906H47.1094L46.9922 88.0078H46.7578L46.6406 88.125H46.2891L46.1719 88.2422H44.7656L44.6484 88.125H44.4141L44.2969 88.0078H44.1797L43.9453 87.7734H43.8281L43.3594 87.3047V87.1875L43.125 86.9531V86.8359L43.0078 86.7188V86.6016L42.8906 86.4844V86.0156L42.7734 85.8984V84.9609L42.8906 84.8438V84.6094L43.0078 84.4922V84.375L43.125 84.2578V84.1406L43.7109 83.5547H43.8281L43.9453 83.4375H44.0625L44.1797 83.3203H45.9375L46.0547 83.2031H47.2266L47.3438 83.0859H48.0469L48.1641 82.9688H48.6328L48.75 82.8516H49.1016L49.2188 82.7344H49.5703L49.6875 82.6172H49.8047L49.9219 82.5H50.2734L50.3906 82.3828H50.5078L50.625 82.2656H50.7422L50.8594 82.1484H50.9766L51.0938 82.0312H51.2109L51.3281 81.9141H51.4453L51.5625 81.7969H51.6797L51.9141 81.5625H52.0312L52.2656 81.3281H52.3828L53.6719 80.0391V79.9219L54.0234 79.5703V79.4531L54.2578 79.2188V79.1016L54.375 78.9844V78.8672L54.4922 78.75V78.5156L54.6094 78.3984V78.2812L54.7266 78.1641V77.9297L54.8438 77.8125V77.4609L54.9609 77.3438V76.875L55.0781 76.7578V75.9375L55.1953 75.8203V74.7656L55.0781 74.6484V73.7109L54.9609 73.5938V73.125L54.8438 73.0078V72.6562L54.7266 72.5391V72.1875L54.6094 72.0703V71.8359L54.4922 71.7188V71.4844L54.375 71.3672V71.25L54.2578 71.1328V71.0156L54.1406 70.8984V70.7812L54.0234 70.6641V70.5469L53.9062 70.4297V70.3125L53.7891 70.1953V70.0781L53.5547 69.8438V69.7266L53.2031 69.375V69.2578L52.2656 68.3203H52.1484L51.9141 68.0859H51.7969L51.6797 67.9688H51.5625L51.3281 67.7344H51.0938L50.9766 67.6172H50.8594L50.7422 67.5H50.5078L50.3906 67.3828H50.1562L50.0391 67.2656H49.5703L49.4531 67.1484H48.8672L48.75 67.0312H48.0469Z" fill="black"/>
<path d="M64.8047 63.1641L64.6875 63.2812H63.75L63.6328 63.3984H63.1641L63.0469 63.5156H62.6953L62.5781 63.6328H62.3438L62.2266 63.75H62.1094L61.9922 63.8672H61.7578L61.6406 63.9844H61.5234L61.4062 64.1016H61.2891L61.1719 64.2188H60.9375L60.7031 64.4531H60.5859L60.4688 64.5703H60.3516L60.1172 64.8047H60L59.4141 65.3906H59.2969L58.8281 65.8594V65.9766L58.3594 66.4453V66.5625L58.125 66.7969V66.9141L57.8906 67.1484V67.2656L57.7734 67.3828V67.5L57.6562 67.6172V67.7344L57.5391 67.8516V67.9688L57.4219 68.0859V68.3203L57.3047 68.4375V68.5547L57.1875 68.6719V68.9062L57.0703 69.0234V69.2578L56.9531 69.375V69.8438L56.8359 69.9609V70.5469L56.7188 70.6641V71.7188L56.8359 71.8359V72.5391L56.9531 72.6562V73.0078L57.0703 73.125V73.3594L57.1875 73.4766V73.5938L57.3047 73.7109V73.8281L57.6562 74.1797V74.2969L58.0078 74.6484H58.125L58.3594 74.8828H58.4766L58.5938 75H58.9453L59.0625 75.1172H60.4688L60.5859 75H60.8203L60.9375 74.8828H61.0547L61.1719 74.7656H61.2891L61.4062 74.6484H61.5234L62.2266 73.9453V73.8281L62.5781 73.4766V73.3594L62.8125 73.125V73.0078L63.0469 72.7734V72.6562L63.3984 72.3047V72.1875L63.9844 71.6016H64.1016L64.3359 71.3672H64.4531L64.5703 71.25H64.6875L64.8047 71.1328H65.7422L65.8594 71.25H65.9766L66.0938 71.3672H66.2109L66.6797 71.8359V71.9531L66.7969 72.0703V72.1875L66.9141 72.3047V72.5391L67.0312 72.6562V73.9453L66.9141 74.0625V74.4141L66.7969 74.5312V74.6484L66.6797 74.7656V74.8828L65.9766 75.5859H65.8594L65.7422 75.7031H65.625L65.5078 75.8203H65.3906L65.2734 75.9375H65.0391L64.9219 76.0547H64.8047L64.6875 76.1719H64.4531L64.3359 76.2891H64.1016L63.9844 76.4062H63.75L63.6328 76.5234H63.3984L63.2812 76.6406H63.1641L63.0469 76.7578H62.8125L62.6953 76.875H62.5781L62.4609 76.9922H62.3438L62.2266 77.1094H62.1094L61.9922 77.2266H61.875L61.7578 77.3438H61.6406L61.5234 77.4609H61.4062L61.2891 77.5781H61.1719L61.0547 77.6953H60.9375L60.8203 77.8125H60.7031L60.4688 78.0469H60.3516L60.1172 78.2812H60L59.7656 78.5156H59.6484L59.5312 78.6328H59.4141L58.8281 79.2188H58.7109L57.1875 80.7422V80.8594L56.8359 81.2109V81.3281L56.6016 81.5625V81.6797L56.3672 81.9141V82.0312L56.25 82.1484V82.2656L56.0156 82.5V82.6172L55.8984 82.7344V82.8516L55.7812 82.9688V83.0859L55.6641 83.2031V83.3203L55.5469 83.4375V83.5547L55.4297 83.6719V83.9062L55.3125 84.0234V84.1406L55.1953 84.2578V84.4922L55.0781 84.6094V84.8438L54.9609 84.9609V85.1953L54.8438 85.3125V85.6641L54.7266 85.7812V86.1328L54.6094 86.25V87.0703L54.4922 87.1875V89.7656L54.6094 89.8828V90.4688L54.7266 90.5859V91.0547L54.8438 91.1719V91.5234L54.9609 91.6406V91.875L55.0781 91.9922V92.2266L55.1953 92.3438V92.4609L55.3125 92.5781V92.6953L55.4297 92.8125V92.9297L55.5469 93.0469V93.1641L55.6641 93.2812V93.3984L55.8984 93.6328V93.75L56.8359 94.6875H56.9531L57.1875 94.9219H57.3047L57.4219 95.0391H57.5391L57.6562 95.1562H57.7734L57.8906 95.2734H58.0078L58.125 95.3906H58.3594L58.4766 95.5078H58.8281L58.9453 95.625H59.5312L59.6484 95.7422H60.1172L60.2344 95.625H61.4062L61.5234 95.5078H61.875L61.9922 95.3906H62.2266L62.3438 95.2734H62.5781L62.6953 95.1562H62.8125L62.9297 95.0391H63.0469L63.1641 94.9219H63.2812L63.3984 94.8047H63.5156L63.75 94.5703H63.8672L64.1016 94.3359H64.2188L65.5078 93.0469V92.9297L65.8594 92.5781V92.4609L66.0938 92.2266V92.1094L66.3281 91.875L66.4453 91.9922V92.5781L66.5625 92.6953V92.9297L66.6797 93.0469V93.2812L66.7969 93.3984V93.5156L67.0312 93.75V93.8672L67.5 94.3359H67.6172L67.8516 94.5703H67.9688L68.0859 94.6875H68.2031L68.3203 94.8047H68.5547L68.6719 94.9219H69.0234L69.1406 95.0391H70.6641L70.7812 94.9219H71.25L71.3672 94.8047H71.4844L71.6016 94.6875H71.8359L71.9531 94.5703H72.0703L72.3047 94.3359H72.4219L72.6562 94.1016H72.7734L73.3594 93.5156V93.3984L73.5938 93.1641V93.0469L73.7109 92.9297V92.8125L73.8281 92.6953V92.5781L73.9453 92.4609V92.1094L74.0625 91.9922V91.5234L74.1797 91.4062V90.8203L74.0625 90.7031V90L73.9453 89.8828V89.6484L73.8281 89.5312V89.2969L73.7109 89.1797V88.9453L73.5938 88.8281V88.7109L73.4766 88.5938V88.4766L73.3594 88.3594V88.2422L73.125 88.0078V87.8906L73.0078 87.7734V87.6562L72.8906 87.5391V87.4219L72.7734 87.3047V87.1875L72.6562 87.0703V86.9531L72.5391 86.8359V86.7188L72.4219 86.6016V86.25L72.3047 86.1328V85.8984L72.1875 85.7812V85.4297L72.0703 85.3125V82.6172L72.1875 82.5V81.7969L72.3047 81.6797V81.0938L72.4219 80.9766V80.5078L72.5391 80.3906V79.9219L72.6562 79.8047V79.2188L72.7734 79.1016V78.6328L72.8906 78.5156V78.0469L73.0078 77.9297V77.4609L73.125 77.3438V76.875L73.2422 76.7578V76.0547L73.3594 75.9375V75.2344L73.4766 75.1172V74.2969L73.5938 74.1797V71.9531L73.4766 71.8359V70.6641L73.3594 70.5469V70.0781L73.2422 69.9609V69.6094L73.125 69.4922V69.1406L73.0078 69.0234V68.9062L72.8906 68.7891V68.5547L72.7734 68.4375V68.3203L72.6562 68.2031V68.0859L72.5391 67.9688V67.8516L72.4219 67.7344V67.6172L72.3047 67.5V67.3828L72.1875 67.2656V67.1484L71.9531 66.9141V66.7969L71.7188 66.5625V66.4453L71.3672 66.0938V65.9766L70.1953 64.8047H70.0781L69.7266 64.4531H69.6094L69.4922 64.3359H69.375L69.2578 64.2188H69.1406L69.0234 64.1016H68.9062L68.7891 63.9844H68.6719L68.5547 63.8672H68.4375L68.3203 63.75H68.0859L67.9688 63.6328H67.8516L67.7344 63.5156H67.2656L67.1484 63.3984H66.7969L66.6797 63.2812H65.8594L65.7422 63.1641H64.8047Z" fill="black"/>
<path d="M98.3203 60L98.2031 60.1172H97.7344L97.6172 60.2344H97.2656L97.1484 60.3516H96.9141L96.7969 60.4688H96.6797L96.5625 60.5859H96.4453L96.3281 60.7031H96.2109L95.9766 60.9375H95.8594L95.5078 61.2891H95.3906L94.5703 62.1094V62.2266L94.2188 62.5781V62.6953L93.8672 63.0469V63.1641L93.6328 63.3984V63.5156L93.3984 63.75V63.8672L93.1641 64.1016V64.2188L92.9297 64.4531V64.5703L92.8125 64.6875V64.8047L92.5781 65.0391V65.1562L92.4609 65.2734V65.3906L92.2266 65.625L92.1094 65.5078V65.0391L91.9922 64.9219V64.6875L91.875 64.5703V64.3359L91.7578 64.2188V64.1016L91.6406 63.9844V63.75L91.5234 63.6328V63.5156L91.4062 63.3984V63.2812L91.2891 63.1641V63.0469L91.1719 62.9297V62.8125L90.9375 62.5781V62.4609L90.4688 61.9922V61.875L90.1172 61.5234H90L89.6484 61.1719H89.5312L89.2969 60.9375H89.0625L88.9453 60.8203H88.8281L88.7109 60.7031H88.3594L88.2422 60.5859H87.0703L86.9531 60.7031H86.3672L86.25 60.8203H86.0156L85.8984 60.9375H85.6641L85.5469 61.0547H85.4297L85.3125 61.1719H85.1953L84.9609 61.4062H84.8438L84.6094 61.6406H84.4922L84.1406 61.9922H84.0234L83.9062 62.1094V62.2266L83.6719 62.4609H83.5547V62.5781L82.9688 63.1641V63.2812L82.7344 63.5156V63.6328L82.5 63.8672V63.9844L82.3828 64.1016V64.2188L82.2656 64.3359V64.4531L82.1484 64.5703H82.0312L81.9141 64.4531V64.1016L81.7969 63.9844V63.8672L81.5625 63.6328V63.5156L80.8594 62.8125H80.7422L80.625 62.6953H80.5078L80.3906 62.5781H80.1562L80.0391 62.4609H79.1016L78.9844 62.5781H78.6328L78.5156 62.6953H78.2812L78.1641 62.8125H78.0469L77.9297 62.9297H77.8125L77.6953 63.0469H77.5781L77.3438 63.2812H77.2266L76.5234 63.9844V64.1016L76.2891 64.3359V64.4531L76.1719 64.5703V64.6875L76.0547 64.8047V65.0391L75.9375 65.1562V65.3906L75.8203 65.5078V65.8594L75.7031 65.9766V66.5625L75.5859 66.6797V68.2031L75.7031 68.3203V68.7891L75.8203 68.9062V69.1406L75.9375 69.2578V69.375L76.0547 69.4922V69.7266L76.1719 69.8438V69.9609L76.2891 70.0781V70.4297L76.4062 70.5469V70.7812L76.5234 70.8984V71.3672L76.6406 71.4844V72.0703L76.7578 72.1875V73.4766L76.875 73.5938V74.7656L76.7578 74.8828V76.5234L76.6406 76.6406V77.5781L76.5234 77.6953V78.5156L76.4062 78.6328V79.3359L76.2891 79.4531V80.0391L76.1719 80.1562V80.7422L76.0547 80.8594V81.3281L75.9375 81.4453V81.9141L75.8203 82.0312V82.5L75.7031 82.6172V83.2031L75.5859 83.3203V83.7891L75.4688 83.9062V84.375L75.3516 84.4922V85.0781L75.2344 85.1953V86.1328L75.1172 86.25V88.0078L75.2344 88.125L75.1172 88.2422L75.2344 88.3594V89.0625L75.3516 89.1797V89.5312L75.4688 89.6484V90L75.5859 90.1172V90.2344L75.7031 90.3516V90.5859L75.8203 90.7031V90.8203L75.9375 90.9375V91.0547L76.1719 91.2891V91.4062L77.1094 92.3438H77.2266L77.4609 92.5781H77.5781L77.6953 92.6953H77.8125L77.9297 92.8125H78.0469L78.1641 92.9297H78.3984L78.5156 93.0469H78.8672L78.9844 93.1641H80.7422L80.8594 93.0469H81.0938L81.2109 92.9297H81.5625L81.6797 92.8125H81.7969L81.9141 92.6953H82.0312L82.1484 92.5781H82.2656L82.5 92.3438H82.6172L83.5547 91.4062V91.2891L83.7891 91.0547V90.9375L83.9062 90.8203V90.7031L84.0234 90.5859V90.4688L84.1406 90.3516V90.1172L84.2578 90V89.7656L84.375 89.6484V89.2969L84.4922 89.1797V86.7188L84.375 86.6016V85.7812L84.2578 85.6641V85.1953L84.1406 85.0781V84.6094L84.0234 84.4922V84.0234L83.9062 83.9062V83.5547L83.7891 83.4375V82.8516L83.6719 82.7344V82.2656L83.5547 82.1484V81.6797L83.4375 81.5625V80.9766L83.3203 80.8594V79.4531L83.2031 79.3359V76.7578L83.3203 76.6406V75.9375L83.4375 75.8203V75.2344L83.5547 75.1172V74.7656L83.6719 74.6484V74.4141L83.7891 74.2969V74.0625L83.9062 73.9453V73.8281L84.0234 73.7109V73.5938L84.1406 73.4766V73.3594L84.2578 73.2422V73.125L84.4922 72.8906V72.7734L84.8438 72.4219H84.9609L85.1953 72.1875H85.3125L85.4297 72.0703H86.0156L86.1328 72.1875H86.3672L87.0703 72.8906V73.0078L87.1875 73.125V73.3594L87.3047 73.4766V73.5938L87.4219 73.7109V74.0625L87.5391 74.1797V75L87.6562 75.1172V77.5781L87.5391 77.6953V79.1016L87.4219 79.2188V80.0391L87.3047 80.1562V80.8594L87.1875 80.9766V81.5625L87.0703 81.6797V82.1484L86.9531 82.2656V82.8516L86.8359 82.9688V83.4375L86.7188 83.5547V83.9062L86.6016 84.0234V84.4922L86.4844 84.6094V85.3125L86.3672 85.4297V86.0156L86.25 86.1328V87.1875L86.1328 87.3047L86.25 87.4219V87.6562L86.1328 87.7734V87.8906L86.25 88.0078V89.0625L86.3672 89.1797V89.5312L86.4844 89.6484V89.8828L86.6016 90V90.1172L86.7188 90.2344V90.3516L86.9531 90.5859V90.7031L87.7734 91.5234H87.8906L88.0078 91.6406H88.125L88.2422 91.7578H88.3594L88.4766 91.875H88.8281L88.9453 91.9922H89.5312L89.6484 92.1094H91.4062L91.5234 91.9922H91.9922L92.1094 91.875H92.3438L92.4609 91.7578H92.5781L92.6953 91.6406H92.8125L92.9297 91.5234H93.0469L93.75 90.8203V90.7031L93.9844 90.4688V90.3516L94.1016 90.2344V90.1172L94.2188 90V89.8828L94.3359 89.7656V89.6484L94.4531 89.5312V89.2969L94.5703 89.1797V88.7109L94.6875 88.5938V88.0078L94.8047 87.8906V86.1328L94.6875 86.0156V85.0781L94.5703 84.9609V83.9062L94.4531 83.7891V83.0859L94.3359 82.9688V82.2656L94.2188 82.1484V81.3281L94.1016 81.2109V80.1562L93.9844 80.0391V77.1094L94.1016 76.9922V75.9375L94.2188 75.8203V75.2344L94.3359 75.1172V74.6484L94.4531 74.5312V74.1797L94.5703 74.0625V73.7109L94.6875 73.5938V73.3594L94.8047 73.2422V73.125L94.9219 73.0078V72.7734L95.1562 72.5391V72.4219L95.2734 72.3047V72.1875L95.625 71.8359V71.7188L95.8594 71.4844H95.9766L96.2109 71.25H96.3281L96.4453 71.1328H97.1484L97.2656 71.25H97.3828L97.5 71.3672H97.6172L97.9688 71.7188V71.8359L98.2031 72.0703V72.1875L98.3203 72.3047V72.5391L98.4375 72.6562V72.8906L98.5547 73.0078V73.5938L98.6719 73.7109V75.1172L98.5547 75.2344V76.2891L98.4375 76.4062V76.875L98.3203 76.9922V77.4609L98.2031 77.5781V78.0469L98.0859 78.1641V78.5156L97.9688 78.6328V78.9844L97.8516 79.1016V79.5703L97.7344 79.6875V80.0391L97.6172 80.1562V80.625L97.5 80.7422V81.2109L97.3828 81.3281V81.9141L97.2656 82.0312V82.5L97.1484 82.6172V83.2031L97.0312 83.3203V84.0234L96.9141 84.1406V87.8906L97.0312 88.0078V88.5938L97.1484 88.7109V89.1797L97.2656 89.2969V89.5312L97.3828 89.6484V89.8828L97.5 90V90.2344L97.6172 90.3516V90.4688L97.7344 90.5859V90.7031L97.8516 90.8203V90.9375L97.9688 91.0547V91.1719L98.2031 91.4062V91.5234L98.5547 91.875V91.9922L99.375 92.8125H99.4922L99.8438 93.1641H99.9609L100.195 93.3984H100.312L100.43 93.5156H100.547L100.664 93.6328H100.898L101.016 93.75H101.25L101.367 93.8672H101.602L101.719 93.9844H102.188L102.305 94.1016H104.18L104.297 93.9844H104.766L104.883 93.8672H105.117L105.234 93.75H105.469L105.586 93.6328H105.703L105.82 93.5156H105.938L106.055 93.3984H106.172L106.289 93.2812H106.406L106.641 93.0469H106.758L107.109 92.6953H107.227L107.695 92.2266V92.1094L108.164 91.6406V91.5234L108.281 91.4062V91.2891L108.398 91.1719V91.0547L108.516 90.9375V90.8203L108.633 90.7031V90.5859L108.75 90.4688V90.2344L108.867 90.1172V89.8828L108.984 89.7656V89.4141L109.102 89.2969V87.5391L108.984 87.4219V86.9531L108.867 86.8359V86.7188L108.75 86.6016V86.4844L108.633 86.3672V86.25L108.516 86.1328V86.0156L108.281 85.7812V85.6641L106.523 83.9062V83.7891L106.289 83.5547V83.4375L106.055 83.2031V83.0859L105.938 82.9688V82.8516L105.82 82.7344V82.6172L105.703 82.5V82.3828L105.586 82.2656V82.0312L105.469 81.9141V81.5625L105.352 81.4453V80.9766L105.234 80.8594V77.8125L105.352 77.6953V76.7578L105.469 76.6406V75.8203L105.586 75.7031V75.1172L105.703 75V74.2969L105.82 74.1797V73.4766L105.938 73.3594V72.6562L106.055 72.5391V71.8359L106.172 71.7188V70.5469L106.289 70.4297V68.2031L106.172 68.0859V67.2656L106.055 67.1484V66.4453L105.938 66.3281V65.8594L105.82 65.7422V65.3906L105.703 65.2734V65.0391L105.586 64.9219V64.6875L105.469 64.5703V64.3359L105.352 64.2188V64.1016L105.234 63.9844V63.8672L105.117 63.75V63.6328L105 63.5156V63.3984L104.766 63.1641V63.0469L104.648 62.9297V62.8125L104.18 62.3438V62.2266L103.594 61.6406H103.477L103.008 61.1719H102.891L102.656 60.9375H102.539L102.422 60.8203H102.305L102.07 60.5859H101.836L101.719 60.4688H101.602L101.484 60.3516H101.25L101.133 60.2344H100.898L100.781 60.1172H100.312L100.195 60H98.3203Z" fill="black"/>
<path d="M17.4609 57.7734L17.3438 57.8906H16.2891L16.1719 58.0078H15.8203L15.7031 58.125H15.4688L15.3516 58.2422H15.1172L15 58.3594H14.7656L14.6484 58.4766H14.5312L14.4141 58.5938H14.2969L14.1797 58.7109H14.0625L13.9453 58.8281H13.8281L13.5938 59.0625H13.4766L13.2422 59.2969H13.125L11.8359 60.5859V60.7031L11.4844 61.0547V61.1719L11.3672 61.2891V61.4062L11.1328 61.6406V61.7578L11.0156 61.875V61.9922L10.8984 62.1094V62.2266L10.7812 62.3438V62.5781L10.6641 62.6953V62.8125L10.5469 62.9297V63.1641L10.4297 63.2812V63.6328L10.3125 63.75V64.2188L10.1953 64.3359V65.0391L10.0781 65.1562V66.4453L10.1953 66.5625V67.3828L10.3125 67.5V67.8516L10.4297 67.9688V68.2031L10.5469 68.3203V68.5547L10.6641 68.6719V68.7891L10.7812 68.9062V69.0234L10.8984 69.1406V69.2578L11.0156 69.375V69.4922L11.25 69.7266V69.8438L11.7188 70.3125V70.4297H11.8359L12.4219 71.0156H12.5391L12.7734 71.25H12.8906L13.0078 71.3672H13.2422L13.3594 71.4844H13.4766L13.5938 71.6016H14.1797L14.2969 71.7188H15.7031L15.8203 71.6016H16.1719L16.2891 71.4844H16.5234L16.6406 71.3672H16.7578L16.875 71.25H16.9922L17.1094 71.1328H17.2266L17.4609 70.8984H17.5781L18.0469 70.4297H18.1641L18.6328 69.9609H18.75L19.1016 69.6094H19.2188L19.3359 69.4922H19.4531L19.5703 69.375H19.6875L19.8047 69.2578H20.7422L20.8594 69.375H21.0938L21.2109 69.4922H21.3281L22.1484 70.3125V70.4297L22.2656 70.5469V70.7812L22.3828 70.8984V71.0156L22.5 71.1328V71.6016L22.6172 71.7188V73.8281L22.5 73.9453V74.4141L22.3828 74.5312V75L22.2656 75.1172V75.5859L22.1484 75.7031V76.0547L22.0312 76.1719V76.5234L21.9141 76.6406V76.9922L21.7969 77.1094V77.4609L21.6797 77.5781V77.9297L21.5625 78.0469V78.5156L21.4453 78.6328V78.8672L21.3281 78.9844V79.3359L21.2109 79.4531V79.8047L21.0938 79.9219V80.1562L20.9766 80.2734V80.625L20.8594 80.7422V81.0938L20.7422 81.2109V81.4453L20.625 81.5625V81.9141L20.5078 82.0312V82.2656L20.3906 82.3828V82.6172L20.2734 82.7344V83.0859L20.1562 83.2031V83.4375L20.0391 83.5547V83.7891L19.9219 83.9062V84.1406L19.8047 84.2578V84.4922L19.6875 84.6094V84.8438L19.5703 84.9609V85.1953L19.4531 85.3125V85.5469L19.3359 85.6641V85.7812L19.2188 85.8984V86.1328L19.1016 86.25V86.4844L18.9844 86.6016V86.8359L18.8672 86.9531V87.1875L18.75 87.3047V87.5391L18.6328 87.6562V87.8906L18.5156 88.0078V88.2422L18.3984 88.3594V88.7109L18.2812 88.8281V89.2969L18.1641 89.4141V90L18.0469 90.1172V91.9922L18.1641 92.1094V92.9297L18.2812 93.0469V93.3984L18.3984 93.5156V93.75L18.5156 93.8672V94.1016L18.6328 94.2188V94.3359L18.75 94.4531V94.5703L18.8672 94.6875V94.8047L18.9844 94.9219V95.0391L19.2188 95.2734V95.3906L19.4531 95.625V95.7422L20.1562 96.4453H20.2734L20.5078 96.6797H20.625L20.8594 96.9141H20.9766L21.0938 97.0312H21.2109L21.3281 97.1484H21.4453L21.5625 97.2656H21.7969L21.9141 97.3828H22.1484L22.2656 97.5H22.6172L22.7344 97.6172H23.2031L23.3203 97.7344H25.4297L25.5469 97.6172H26.0156L26.1328 97.5H26.3672L26.4844 97.3828H26.8359L26.9531 97.2656H27.0703L27.1875 97.1484H27.4219L27.5391 97.0312H27.6562L27.7734 96.9141H27.8906L28.125 96.6797H28.2422L28.3594 96.5625H28.4766L28.8281 96.2109H28.9453L29.8828 95.2734V95.1562L30.2344 94.8047V94.6875L30.4688 94.4531V94.3359L30.5859 94.2188V94.1016L30.7031 93.9844V93.8672L30.8203 93.75V93.6328L30.9375 93.5156V93.2812L31.0547 93.1641V92.8125L31.1719 92.6953V92.3438L31.2891 92.2266L31.1719 92.1094L31.2891 91.9922V88.9453L31.1719 88.8281V88.125L31.0547 88.0078V87.0703L30.9375 86.9531V86.3672L30.8203 86.25V85.7812L30.7031 85.6641V85.0781L30.5859 84.9609V84.4922L30.4688 84.375V83.6719L30.3516 83.5547V82.9688L30.2344 82.8516V82.2656L30.1172 82.1484V81.3281L30 81.2109V76.6406L30.1172 76.5234V75.4688L30.2344 75.3516V74.7656L30.3516 74.6484V74.1797L30.4688 74.0625V73.8281L30.5859 73.7109V73.3594L30.7031 73.2422V73.0078L30.8203 72.8906V72.7734L30.9375 72.6562V72.4219L31.0547 72.3047V72.1875L31.2891 71.9531V71.8359L31.5234 71.6016V71.4844L31.9922 71.0156H32.1094L32.3438 70.7812H32.4609L32.5781 70.6641H33.8672L33.9844 70.7812H34.6875L34.8047 70.8984H35.625L35.7422 71.0156H38.0859L38.2031 70.8984H38.6719L38.7891 70.7812H39.0234L39.1406 70.6641H39.375L39.4922 70.5469H39.6094L39.7266 70.4297H39.9609L40.1953 70.1953H40.3125L40.5469 69.9609H40.6641L41.8359 68.7891V68.6719L42.0703 68.4375V68.3203L42.3047 68.0859V67.9688L42.4219 67.8516V67.7344L42.5391 67.6172V67.3828L42.6562 67.2656V67.0312L42.7734 66.9141V66.6797L42.8906 66.5625V66.0938L43.0078 65.9766V64.8047L42.8906 64.6875V64.2188L42.7734 64.1016V63.8672L42.6562 63.75V63.6328L42.5391 63.5156V63.3984L42.4219 63.2812V63.1641L41.6016 62.3438H41.4844L41.25 62.1094H41.0156L40.8984 61.9922H40.6641L40.5469 61.875H38.3203L38.2031 61.9922H37.6172L37.5 62.1094H33.0469L32.9297 61.9922H32.3438L32.2266 61.875H31.6406L31.5234 61.7578H31.1719L31.0547 61.6406H30.7031L30.5859 61.5234H30.2344L30.1172 61.4062H29.6484L29.5312 61.2891H29.2969L29.1797 61.1719H28.9453L28.8281 61.0547H28.5938L28.4766 60.9375H28.2422L28.125 60.8203H27.8906L27.7734 60.7031H27.5391L27.4219 60.5859H27.1875L27.0703 60.4688H26.8359L26.7188 60.3516H26.6016L26.4844 60.2344H26.25L26.1328 60.1172H26.0156L25.8984 60H25.6641L25.5469 59.8828H25.4297L25.3125 59.7656H25.0781L24.9609 59.6484H24.8438L24.7266 59.5312H24.6094L24.4922 59.4141H24.2578L24.1406 59.2969H24.0234L23.9062 59.1797H23.6719L23.5547 59.0625H23.4375L23.3203 58.9453H23.0859L22.9688 58.8281H22.7344L22.6172 58.7109H22.3828L22.2656 58.5938H21.9141L21.7969 58.4766H21.5625L21.4453 58.3594H21.0938L20.9766 58.2422H20.625L20.5078 58.125H20.0391L19.9219 58.0078H19.3359L19.2188 57.8906H17.8125L17.6953 57.7734H17.4609Z" fill="black"/>
<path d="M39.0234 21.6797L38.9062 21.7969H38.3203L38.2031 21.9141H37.7344L37.6172 22.0312H37.2656L37.1484 22.1484H36.7969L36.6797 22.2656H36.5625L36.4453 22.3828H36.2109L36.0938 22.5H35.9766L35.8594 22.6172H35.625L35.5078 22.7344H35.3906L35.1562 22.9688H35.0391L34.9219 23.0859H34.8047L34.5703 23.3203H34.4531L34.2188 23.5547H34.1016L33.75 23.9062H33.6328L32.2266 25.3125V25.4297L31.7578 25.8984V26.0156L31.1719 26.6016V26.7188L29.1797 28.7109H29.0625L28.3594 29.4141H28.2422L27.7734 29.8828H27.6562L27.3047 30.2344H27.1875L26.9531 30.4688H26.8359L26.4844 30.8203H26.3672L26.1328 31.0547H26.0156L25.6641 31.4062H25.5469L25.3125 31.6406H25.1953L24.375 32.4609V32.5781L24.1406 32.8125V32.9297L24.0234 33.0469V33.1641L23.9062 33.2812V33.3984L23.7891 33.5156V33.6328L23.6719 33.75V33.9844L23.5547 34.1016V34.4531L23.4375 34.5703V36.2109L23.5547 36.3281V36.6797L23.6719 36.7969V36.9141L23.7891 37.0312V37.2656L23.9062 37.3828V37.5L24.1406 37.7344V37.8516L24.9609 38.6719H25.0781L25.1953 38.7891H25.3125L25.4297 38.9062H25.5469L25.6641 39.0234H25.7812L25.8984 39.1406H26.1328L26.25 39.2578H26.6016L26.7188 39.375H28.4766L28.5938 39.2578H29.0625L29.1797 39.1406H29.4141L29.5312 39.0234H29.7656L29.8828 38.9062H30L30.2344 38.6719H30.3516L31.1719 37.8516V37.7344L31.9922 36.9141H32.1094L32.3438 36.6797H32.8125L33.0469 36.9141V37.1484L33.1641 37.2656V38.7891L33.0469 38.9062V39.6094L32.9297 39.7266V40.1953L32.8125 40.3125V40.7812L32.6953 40.8984V41.3672L32.5781 41.4844V41.9531L32.4609 42.0703V42.4219L32.3438 42.5391V43.0078L32.2266 43.125V43.5938L32.1094 43.7109V44.0625L31.9922 44.1797V44.5312L31.875 44.6484V45L31.7578 45.1172V45.4688L31.6406 45.5859V45.8203L31.5234 45.9375V46.2891L31.4062 46.4062V46.7578L31.2891 46.875V47.1094L31.1719 47.2266V47.4609L31.0547 47.5781V47.8125L30.9375 47.9297V48.1641L30.8203 48.2812V48.5156L30.7031 48.6328V48.8672L30.5859 48.9844V49.2188L30.4688 49.3359V49.4531L30.3516 49.5703V49.8047L30.2344 49.9219V50.0391L30.1172 50.1562V50.3906L30 50.5078V50.7422L29.8828 50.8594V50.9766L29.7656 51.0938V51.3281L29.6484 51.4453V51.6797L29.5312 51.7969V51.9141L29.4141 52.0312V52.2656L29.2969 52.3828V52.6172L29.1797 52.7344V52.9688L29.0625 53.0859V53.4375L28.9453 53.5547V53.9062L28.8281 54.0234V54.375L28.7109 54.4922V56.4844L28.8281 56.6016V56.8359L28.9453 56.9531V57.1875L29.0625 57.3047V57.4219L29.2969 57.6562V57.7734L29.5312 58.0078V58.125L29.8828 58.4766H30L30.3516 58.8281H30.4688L30.5859 58.9453H30.7031L30.8203 59.0625H31.0547L31.1719 59.1797H31.2891L31.4062 59.2969H31.6406L31.7578 59.4141H31.875L31.9922 59.5312H32.2266L32.3438 59.6484H32.5781L32.6953 59.7656H32.9297L33.0469 59.8828H33.3984L33.5156 60H33.8672L33.9844 60.1172H34.3359L34.4531 60.2344H35.1562L35.2734 60.3516H37.0312L37.1484 60.2344H37.8516L37.9688 60.1172H38.3203L38.4375 60H38.6719L38.7891 59.8828H38.9062L39.0234 59.7656H39.1406L39.2578 59.6484H39.4922L39.6094 59.5312H39.7266L39.8438 59.4141H39.9609L40.1953 59.1797H40.3125L40.4297 59.0625H40.5469L40.7812 58.8281H40.8984L41.25 58.4766H41.3672L42.3047 57.5391V57.4219L42.5391 57.1875V57.0703L42.6562 56.9531V56.8359L42.7734 56.7188V56.6016L42.8906 56.4844V56.3672L43.0078 56.25V56.0156L43.125 55.8984V55.6641L43.2422 55.5469V55.1953L43.3594 55.0781V54.2578L43.4766 54.1406V52.7344L43.3594 52.6172L43.4766 52.5V52.3828L43.3594 52.2656V50.8594L43.2422 50.7422V49.9219L43.125 49.8047V49.2188L43.0078 49.1016V48.3984L42.8906 48.2812V47.8125L42.7734 47.6953V47.2266L42.6562 47.1094V46.4062L42.5391 46.2891V45.3516L42.4219 45.2344V45.1172L42.5391 45V44.8828L42.4219 44.7656V41.1328L42.5391 41.0156V39.8438L42.6562 39.7266V38.7891L42.7734 38.6719V37.8516L42.8906 37.7344V37.0312L43.0078 36.9141V36.2109L43.125 36.0938V35.3906L43.2422 35.2734V34.8047L43.3594 34.6875V34.2188L43.4766 34.1016V33.6328L43.5938 33.5156V33.0469L43.7109 32.9297V32.4609L43.8281 32.3438V31.875L43.9453 31.7578V31.4062L44.0625 31.2891V30.9375L44.1797 30.8203V30.4688L44.2969 30.3516V30L44.4141 29.8828V29.5312L44.5312 29.4141V29.0625L44.6484 28.9453V28.5938L44.7656 28.4766V28.125L44.8828 28.0078V27.3047L45 27.1875V25.8984L44.8828 25.7812V25.3125L44.7656 25.1953V24.8438L44.6484 24.7266V24.4922L44.5312 24.375V24.1406L44.4141 24.0234V23.9062L44.2969 23.7891V23.6719L44.1797 23.5547V23.4375L44.0625 23.3203V23.2031L43.3594 22.5H43.2422L43.0078 22.2656H42.8906L42.7734 22.1484H42.6562L42.5391 22.0312H42.3047L42.1875 21.9141H41.9531L41.8359 21.7969H41.3672L41.25 21.6797H39.0234Z" fill="black"/>
<path d="M65.5078 20.8594L65.3906 20.9766H63.6328L63.5156 21.0938H62.6953L62.5781 21.2109H61.875L61.7578 21.3281H61.0547L60.9375 21.4453H60.5859L60.4688 21.5625H60L59.8828 21.6797H59.5312L59.4141 21.7969H59.0625L58.9453 21.9141H58.7109L58.5938 22.0312H58.2422L58.125 22.1484H57.8906L57.7734 22.2656H57.5391L57.4219 22.3828H57.3047L57.1875 22.5H56.9531L56.8359 22.6172H56.7188L56.6016 22.7344H56.3672L56.25 22.8516H56.1328L56.0156 22.9688H55.8984L55.7812 23.0859H55.6641L55.5469 23.2031H55.4297L55.3125 23.3203H55.1953L55.0781 23.4375H54.9609L54.8438 23.5547H54.7266L54.6094 23.6719H54.4922L54.2578 23.9062H54.1406L53.9062 24.1406H53.7891L53.6719 24.2578H53.5547L53.2031 24.6094H53.0859L52.7344 24.9609H52.6172L51.9141 25.6641H51.7969L51.5625 25.8984V26.0156L50.625 26.9531V27.0703L50.2734 27.4219V27.5391L50.0391 27.7734V27.8906L49.9219 28.0078V28.125L49.6875 28.3594V28.4766L49.5703 28.5938V28.7109L49.4531 28.8281V28.9453L49.3359 29.0625V29.1797L49.2188 29.2969V29.4141L49.1016 29.5312V29.7656L48.9844 29.8828V30.1172L48.8672 30.2344V30.4688L48.75 30.5859V30.9375L48.6328 31.0547V31.5234L48.5156 31.6406V34.2188L48.6328 34.3359V34.9219L48.75 35.0391V35.2734L48.8672 35.3906V35.625L48.9844 35.7422V35.8594L49.1016 35.9766V36.2109L49.2188 36.3281V36.4453L49.4531 36.6797V36.7969L49.8047 37.1484V37.2656L50.2734 37.7344H50.3906L50.625 37.9688H50.7422L50.9766 38.2031H51.0938L51.2109 38.3203H51.4453L51.5625 38.4375H51.6797L51.7969 38.5547H52.2656L52.3828 38.6719H54.1406L54.2578 38.5547H54.7266L54.8438 38.4375H55.1953L55.3125 38.3203H55.5469L55.6641 38.2031H55.7812L55.8984 38.0859H56.0156L56.1328 37.9688H56.25L56.4844 37.7344H56.6016L56.8359 37.5H56.9531L57.6562 36.7969V36.6797L58.0078 36.3281V36.2109L58.2422 35.9766V35.8594L58.3594 35.7422V35.625L58.4766 35.5078V35.3906L58.5938 35.2734V35.1562L58.7109 35.0391V34.9219L58.8281 34.8047V34.6875L58.9453 34.5703V34.4531L59.0625 34.3359V34.2188L59.1797 34.1016V33.9844L59.2969 33.8672V33.75L59.4141 33.6328V33.5156L59.5312 33.3984V33.2812L59.6484 33.1641V33.0469L59.7656 32.9297V32.8125L60 32.5781V32.4609L60.1172 32.3438V32.2266L60.3516 31.9922V31.875L61.2891 30.9375H61.4062L61.5234 30.8203H61.6406L61.7578 30.7031H61.875L61.9922 30.5859H62.3438L62.4609 30.4688H63.75L63.8672 30.5859H64.2188L64.3359 30.7031H64.4531L64.5703 30.8203H64.6875L65.5078 31.6406V31.7578L65.625 31.875V31.9922L65.7422 32.1094V32.3438L65.8594 32.4609L65.7422 32.5781L65.8594 32.6953V33.3984L65.7422 33.5156V33.9844L65.625 34.1016V34.3359L65.5078 34.4531V34.6875L65.3906 34.8047V34.9219L65.2734 35.0391V35.1562L65.1562 35.2734V35.3906L65.0391 35.5078V35.625L64.9219 35.7422V35.8594L64.6875 36.0938V36.2109L64.1016 36.7969V36.9141L63.0469 37.9688H62.9297L62.4609 38.4375H62.3438L62.1094 38.6719H61.9922L61.6406 39.0234H61.5234L61.2891 39.2578H61.1719L61.0547 39.375H60.9375L60.8203 39.4922H60.7031L60.4688 39.7266H60.3516L60.2344 39.8438H60.1172L59.8828 40.0781H59.7656L59.6484 40.1953H59.5312L59.4141 40.3125H59.2969L59.0625 40.5469H58.9453L58.8281 40.6641H58.7109L58.4766 40.8984H58.3594L58.125 41.1328H58.0078L57.8906 41.25H57.7734L57.5391 41.4844H57.4219L57.3047 41.6016H57.1875L56.9531 41.8359H56.8359L56.7188 41.9531H56.6016L56.3672 42.1875H56.25L56.0156 42.4219H55.8984L55.6641 42.6562H55.5469L55.3125 42.8906H55.1953L54.9609 43.125H54.8438L54.6094 43.3594H54.4922L54.1406 43.7109H54.0234L53.7891 43.9453H53.6719L53.3203 44.2969H53.2031L52.8516 44.6484H52.7344L52.3828 45H52.2656L51.5625 45.7031H51.4453L50.2734 46.875H50.1562L49.3359 47.6953V47.8125L48.5156 48.6328V48.75L48.0469 49.2188V49.3359L47.6953 49.6875V49.8047L47.4609 50.0391V50.1562L47.3438 50.2734V50.3906L47.1094 50.625V50.7422L46.9922 50.8594V50.9766L46.875 51.0938V51.2109L46.7578 51.3281V51.4453L46.6406 51.5625V51.7969L46.5234 51.9141V52.0312L46.4062 52.1484V52.3828L46.2891 52.5V52.7344L46.1719 52.8516V53.2031L46.0547 53.3203V53.7891L45.9375 53.9062V54.9609L45.8203 55.0781V55.7812L45.9375 55.8984V56.7188L46.0547 56.8359V57.1875L46.1719 57.3047V57.5391L46.2891 57.6562V57.7734L46.4062 57.8906V58.125L46.5234 58.2422V58.3594L46.7578 58.5938V58.7109L47.5781 59.5312H47.6953L47.9297 59.7656H48.0469L48.1641 59.8828H48.2812L48.3984 60H48.5156L48.6328 60.1172H48.8672L48.9844 60.2344H49.5703L49.6875 60.3516H51.0938L51.2109 60.2344H51.7969L51.9141 60.1172H52.1484L52.2656 60H52.6172L52.7344 59.8828H52.8516L52.9688 59.7656H53.2031L53.3203 59.6484H53.4375L53.5547 59.5312H53.6719L53.7891 59.4141H54.0234L54.1406 59.2969H54.375L54.4922 59.1797H54.6094L54.7266 59.0625H55.0781L55.1953 58.9453H55.4297L55.5469 58.8281H55.8984L56.0156 58.7109H56.4844L56.6016 58.5938H57.1875L57.3047 58.4766H60.2344L60.3516 58.5938H61.1719L61.2891 58.7109H61.7578L61.875 58.8281L61.9922 58.7109L62.1094 58.8281H62.4609L62.5781 58.9453H63.0469L63.1641 59.0625H63.6328L63.75 59.1797H64.2188L64.3359 59.2969H64.6875L64.8047 59.4141H65.1562L65.2734 59.5312H65.7422L65.8594 59.6484H66.2109L66.3281 59.7656H66.9141L67.0312 59.8828H67.6172L67.7344 60H68.3203L68.4375 60.1172H69.4922L69.6094 60.2344H70.7812L70.8984 60.3516H71.0156L71.1328 60.2344H73.125L73.2422 60.1172H73.8281L73.9453 60H74.2969L74.4141 59.8828H74.5312L74.6484 59.7656H74.8828L75 59.6484H75.2344L75.3516 59.5312H75.4688L75.5859 59.4141H75.7031L75.9375 59.1797H76.0547L76.1719 59.0625H76.2891L76.6406 58.7109H76.7578L77.6953 57.7734V57.6562L78.1641 57.1875V57.0703L78.2812 56.9531V56.8359L78.5156 56.6016V56.4844L78.6328 56.3672V56.25L78.75 56.1328V56.0156L78.8672 55.8984V55.7812L78.9844 55.6641V55.4297L79.1016 55.3125V55.1953L79.2188 55.0781V54.8438L79.3359 54.7266V54.2578L79.4531 54.1406V53.6719L79.5703 53.5547V52.8516L79.6875 52.7344V51.7969L79.5703 51.6797V50.625L79.4531 50.5078V50.0391L79.3359 49.9219V49.6875L79.2188 49.5703V49.3359L79.1016 49.2188V49.1016L78.9844 48.9844V48.8672L78.8672 48.75V48.6328L78.75 48.5156V48.3984L78.5156 48.1641V48.0469L77.9297 47.4609H77.8125L77.5781 47.2266H77.4609L77.3438 47.1094H77.2266L77.1094 46.9922H76.875L76.7578 46.875H76.6406L76.5234 46.7578H76.1719L76.0547 46.6406H74.4141L74.2969 46.7578H73.9453L73.8281 46.875H73.4766L73.3594 46.9922H73.2422L73.125 47.1094H72.8906L72.7734 47.2266H72.6562L72.5391 47.3438H72.4219L72.1875 47.5781H72.0703L71.9531 47.6953H71.8359L71.6016 47.9297H71.4844L71.1328 48.2812H71.0156L70.6641 48.6328H70.5469L70.3125 48.8672H70.1953L69.8438 49.2188H69.7266L69.4922 49.4531H69.375L69.2578 49.5703H69.1406L69.0234 49.6875H68.9062L68.7891 49.8047H68.6719L68.5547 49.9219H68.3203L68.2031 50.0391H67.9688L67.8516 50.1562H67.6172L67.5 50.2734H67.2656L67.1484 50.3906H66.7969L66.6797 50.5078H66.0938L65.9766 50.625H65.0391L64.9219 50.7422H63.75L63.6328 50.625H62.9297L62.8125 50.5078H62.3438L62.2266 50.3906H61.875L61.7578 50.2734H61.6406L61.5234 50.1562H61.4062L61.2891 50.0391H61.1719L60.8203 49.6875V49.5703L60.7031 49.4531V48.6328L60.8203 48.5156V48.3984L60.9375 48.2812V48.1641L61.4062 47.6953V47.5781L61.7578 47.2266H61.875L62.3438 46.7578H62.4609L62.8125 46.4062H62.9297L63.1641 46.1719H63.2812L63.5156 45.9375H63.6328L63.8672 45.7031H63.9844L64.1016 45.5859H64.2188L64.3359 45.4688H64.4531L64.5703 45.3516H64.6875L64.9219 45.1172H65.0391L65.1562 45H65.2734L65.3906 44.8828H65.5078L65.625 44.7656H65.7422L65.8594 44.6484H65.9766L66.0938 44.5312H66.2109L66.3281 44.4141H66.4453L66.5625 44.2969H66.6797L66.7969 44.1797H66.9141L67.0312 44.0625H67.2656L67.3828 43.9453H67.5L67.6172 43.8281H67.7344L67.8516 43.7109H67.9688L68.0859 43.5938H68.2031L68.3203 43.4766H68.5547L68.6719 43.3594H68.7891L68.9062 43.2422H69.0234L69.1406 43.125H69.375L69.4922 43.0078H69.6094L69.7266 42.8906H69.8438L69.9609 42.7734H70.0781L70.1953 42.6562H70.3125L70.4297 42.5391H70.5469L70.7812 42.3047H70.8984L71.0156 42.1875H71.1328L71.25 42.0703H71.3672L71.4844 41.9531H71.6016L71.8359 41.7188H71.9531L72.1875 41.4844H72.3047L72.5391 41.25H72.6562L72.8906 41.0156H73.0078L73.3594 40.6641H73.4766L74.5312 39.6094H74.6484V39.4922L75.8203 38.3203V38.2031L76.0547 37.9688V37.8516L76.4062 37.5V37.3828L76.6406 37.1484V37.0312L76.7578 36.9141V36.7969L76.875 36.6797V36.5625L77.1094 36.3281V36.2109L77.2266 36.0938V35.9766L77.3438 35.8594V35.625L77.4609 35.5078V35.3906L77.5781 35.2734V35.0391L77.6953 34.9219V34.8047L77.8125 34.6875V34.4531L77.9297 34.3359V33.9844L78.0469 33.8672V33.6328L78.1641 33.5156V32.9297L78.2812 32.8125V32.1094L78.3984 31.9922V29.4141L78.2812 29.2969V28.8281L78.1641 28.7109V28.2422L78.0469 28.125V27.8906L77.9297 27.7734V27.5391L77.8125 27.4219V27.1875L77.6953 27.0703V26.9531L77.5781 26.8359V26.7188L77.4609 26.6016V26.4844L77.3438 26.3672V26.25L77.2266 26.1328V26.0156L77.1094 25.8984V25.7812L76.875 25.5469V25.4297L76.5234 25.0781V24.9609L76.0547 24.4922V24.375L75.7031 24.0234H75.5859L74.7656 23.2031H74.6484L74.5312 23.0859H74.4141L74.1797 22.8516H74.0625L73.8281 22.6172H73.7109L73.5938 22.5H73.4766L73.3594 22.3828H73.2422L73.125 22.2656H73.0078L72.8906 22.1484H72.7734L72.6562 22.0312H72.4219L72.3047 21.9141H72.0703L71.9531 21.7969H71.8359L71.7188 21.6797H71.3672L71.25 21.5625H71.0156L70.8984 21.4453H70.4297L70.3125 21.3281H69.8438L69.7266 21.2109H69.2578L69.1406 21.0938L69.0234 21.2109L68.9062 21.0938H68.0859L67.9688 20.9766H66.9141L66.7969 20.8594H65.5078Z" fill="black"/>
</svg>
